<svg xmlns="http://www.w3.org/2000/svg" viewBox="0 0 3000 3000" width="3000" height="3000"><g transform="translate(1005.0 396.0) rotate(0.0 582.0 1108.0) scale(0.9985682041814614 0.9990937822642818)"><svg width="1165.669" height="2218.01" viewBox="0 0 1165.669 2218.01"><linearGradient id="a" gradientTransform="matrix(-.999 .0447 .0447 .999 9822.8867 -126.3341)" gradientUnits="userSpaceOnUse" x1="9105.807" x2="9151.435" y1="165.536" y2="165.536"><stop offset=".382" stop-color="#f79478"/><stop offset=".994" stop-color="#fcb798"/></linearGradient><linearGradient id="b" gradientTransform="matrix(-.8452 -.7578 -.6156 .8054 7732.4028 3809.0002)" gradientUnits="userSpaceOnUse" x1="6780.632" x2="6812.976" y1="2234.649" y2="2234.649"><stop offset=".013" stop-color="#fcb798"/><stop offset=".41" stop-color="#f79478"/></linearGradient><linearGradient id="c" gradientTransform="matrix(.9849 -.1732 .1732 .9849 815.3268 101.0972)" gradientUnits="userSpaceOnUse" x1="-562.886" x2="-530.578" y1="376.94" y2="376.94"><stop offset=".076" stop-color="#fdb899"/><stop offset=".577" stop-color="#ff7b68"/></linearGradient><linearGradient id="d" gradientTransform="matrix(-.6703 .7421 -.7421 -.6703 7288.4443 -8254.9141)" gradientUnits="userSpaceOnUse" x1="11229.462" x2="11261.771" y1="-698.548" y2="-698.548"><stop offset=".076" stop-color="#fdb899"/><stop offset=".727" stop-color="#ff7b60"/></linearGradient><path d="M0 707.482c54.353 3.856 95.609 15.897 90.563 56.878 156.239-38.116 290.107-39.661 440.408-19.107 148.421-40.503 313.691-41.28 495.863-17.036 32.312-37.135 79.139-68.469 138.835-94.66 0 0-167.805-357.725-214.562-402.981-82.94-80.276-283.078-154.16-409.292-146.047-205.321 13.199-359.347 153.259-381.642 195.834C105.885 384.034 0 707.482 0 707.482z" fill="#e1e7e9"/><path d="M503.55 1129.707s.211 167.89 10.913 412.881c9.365 214.393 35.254 366.221 47.848 370.888s80.913 4.66 86.748-4.388 34.558-401.968 34.558-401.968 18.598 507.616 29.304 519.583c10.707 11.967 101.796 6.113 104.735-4.384s40.029-215.835 54.212-511.561c12.587-262.446.909-384.689.909-384.689z" fill="#242929"/><path d="M680.031 1177a3.813 3.813 0 0 0-3.136 3.76c.086 35.815 4.528 363.6 6.769 328.894 3.473-53.784 2.975-192.65 2.975-192.65 9.964-6.543 23.536-26.529 29.077-43.102 5.513-16.49 7.446-104.035 4.203-111.323a3.82 3.82 0 0 0-4.115-3.671c-2.052.156-3.554 2.029-3.516 4.086 0 0 1.807 77.54-2.274 100.189-4.561 25.313-21.893 41.378-21.437 37.856l-3.722-120.518a3.818 3.818 0 0 0-4.498-3.581zM505.88 1286.32c10.331 2.727 31.895-35.009 38.253-84.034-.161 40.851-19.127 86.285-38.253 92.469zm332.716-92.507c12.897 54.197 25.883 91.909 39.107 85.442l.007 7.098c-15.695 10.146-34.849-45.311-39.114-92.54zm-109.497 404.774c-17.287-9.359 8.529 24.554 47.557 24.554 30.757 0 58.347-32.071 40.049-22.186-24.799 13.398-47.027 19.601-87.606-2.368zm-182.458-24.827c-17.287-9.359 8.53 24.554 47.557 24.554 30.757 0 58.348-32.071 40.049-22.186-24.799 13.398-47.027 19.602-87.606-2.368z" fill="#121515"/><ellipse cx="660.972" cy="1106.786" fill="#1f2729" rx="12.156" ry="5.853" transform="matrix(.0188 -.9998 .9998 .0188 -458.0689 1746.7921)"/><ellipse cx="663.491" cy="1170.303" fill="#242929" rx="12.156" ry="5.853" transform="matrix(.0188 -.9998 .9998 .0188 -519.1044 1811.6287)"/><path d="M816.344 2088.175c-2.312-5.46-4.123-14.334-2.484-22.292 14.144-68.677 13.822-64.482 10.19-66.598s-13.097-6.226-15.862-.028c-3.236 7.254-9.104 23.296-9.104 23.296-10.022-32.72-52.191-35.255-70.395-5.99 0 0-2.36-11.633-4.636-17.453s-18.176-3.057-17.603-.031c-3.06 6.351 5.73 51.548 6.134 67.124.21 8.123-.708 15.242-2.428 20.916-7.034 23.211-23.523 39.211-28.61 57.17-1.344 4.744-2.503 31.845 5.886 38.421 26.029 20.403 111.495 25.895 145.587 5.899 7.976-4.678 8.481-34.035 8.126-38.247-.769-9.105-1.588-7.357-24.801-62.187zm-269.032-180.5c-4.646 5.617 5.342 21.883 2.952 32.228-3.234 14.006-29.246 109.564-8.695 155.052 11.396 25.223 39.615 37.458 66.174 34.629 32.167-3.427 46.748-25.637 47.608-27.217 23.349-42.855 2.205-133.91-3.804-157.916-2.126-8.495 6.212-34.192 1.732-36.604-2.744-1.478-11.2-4.308-13.957-2.068s-4.008 8.385-4.008 8.385c-12.188-28.2-61.64-25.788-68.597-.287 0 0-4.457-6.312-6.676-9.226-2.218-2.914-11.535 1.58-12.729 3.024z" fill="#020202"/><path d="M568.097 1963.947c-2.211-.078-5.587 3.059-4.893 5.449 1.652 8.576 50.445 9.617 52.22 9.766 2.881.24 9.627.704 9.119 1.908-3.27 7.752-58.895 2.473-62.092 2.405s-2.148 6.318 1.508 7.881 51.221 10.837 53.015 11.359c1.794.521 2.621 2.173.024 2.398-7.404.673-48.778-3.395-51.724-2.346-2.153.767-.297 5.865 1.32 7.048 6.444 4.715 52.207 9.446 57.733 9.446 6.117 0 6.305 2.201-4.235 3.504-17.529 2.168-50.384-.189-53.38-.759s-1.579 3.65-.6 5.003c3.945 5.452 48.584 8.937 51.304 11.937 4.839 5.336-36.452 4.218-47.814-.841-.572-.255-2.837 2.269-1.27 3.011 1.567.743 38.585 7.999 59.757-.877 2.968-1.244 6.331-3.96 2.408-6.22-3.922-2.26-41.973-1.735-50.719-5.347s35.281 2.907 54.43-6.378c2.721-.926 2.908-6.231-4-6.823-8.235-.706-20.237.054-49.345-5.517-4.797-.918 1.006-1.43 3.238-1.231 21.209 1.888 46.674 2.827 49.401-4.074 1.111-2.814 1.492-6.811-4.884-7.447-28.339-3.831-66.296-5.903-50.19-4.825 24.102 2.799 54.797-.899 57.427-11.02.808-3.11-.889-4.486-3.365-5.061s-68.773-6.479-49.454-7.431c47.76-2.353 51.737-7.738 54.579-9.565s-2.25-3.976-4.583-3.353c-2.334.623-5.89 2.765-16.984 4.666-26.612 3.863-45.74 3.413-47.951 3.334zm-22.141 107.458c4.324 25.347 25.463 36.251 48.905 36.419 30.594.219 47.768-5.803 55.711-29.737-3.323 54.474-108.351 47.469-104.616-6.682zm160.588 60.733c10.334 13.583 83.602 25.556 120.226 3.668 0 0-37.13 28.489-111.025 5.473-13.25-5.206-13.033-9.193-13.033-9.193z" fill="#fff"/><path d="M685.742 2150.922s15.969 24.324 86.712 23.037c47.998-.873 64.607-19.073 64.607-19.073s-3.84 23.342-4.749 26.359c-.909 3.016-40.544 26.04-118.864 7.382-12.6-3.002-23.039-7.846-24.701-16.347s-3.005-21.358-3.005-21.358zm43.823-124.92c-2.211-.078-5.587 3.059-4.893 5.449 1.652 8.576 61.884 11.563 63.659 11.711 2.881.24 9.627.704 9.119 1.908-3.27 7.752-66.849-.989-70.047-1.057-3.197-.068-2.148 6.318 1.508 7.881s53.018 11.181 54.812 11.702c1.794.522 2.621 2.173.024 2.399-7.404.673-50.255-2.62-53.201-1.571-2.153.767-.487 6.183 1.32 7.049 6.5 3.115 52.261 6.711 56.171 7.672s1.934 2.195-2.313 2.721c-17.529 2.173-49.255-1.963-52.251-2.533s-1.579 3.65-.6 5.003c3.945 5.452 48.584 8.937 51.304 11.937 4.839 5.336-44.682.165-56.045-4.894-.572-.255-2.837 2.269-1.27 3.011s45.428 9.303 67.988 3.177c3.106-.844 6.331-3.961 2.408-6.22-3.922-2.26-41.973-1.735-50.719-5.347-8.746-3.611 36.565 6.986 55.713-2.299 2.721-.927 3.855-8.762-3.075-8.565-5.597.159-22.898 5.163-53.041-3.525-4.694-1.353 1.006-1.43 3.238-1.231 21.209 1.889 48.151 2.052 50.878-4.849 1.111-2.814 1.492-6.811-4.884-7.447-28.339-3.831-66.285-9.458-50.179-8.38 24.102 2.799 60.944 5.775 63.573-4.346.808-3.11-.889-4.486-3.365-5.061s-72.814-7.179-53.519-5.821c46.053 3.241 58.757-9.924 61.599-11.752 2.842-1.827-2.25-3.975-4.583-3.353-2.334.623-5.89 2.766-16.984 4.666-26.611 3.862-60.134 2.043-62.345 1.965z" fill="#fff"/><path d="m669.347 558.247 22.458 602.916c25.48 7.24 59.875 4.524 78.423 1.9L745.832 567.27z" fill="#bae7e2"/><path d="M879.976 1523.513c-1.518-11.341-2.882-169.099 51.415-233.294 0 0 66.895-94.456 150.208-104.232 6.208-.729 12.005-.796 17.753-.53 12.654.585 28.272 11.757 30.176 21.636 9.11 47.257-150.334 65.294-154.877 80.473s49.546 229.827 49.546 229.827l-34.046-14.89s-42.379-205.097-27.7-227.479 147.15-40.602 142.026-62.807c-2-8.668-79.619-4.03-128.675 47.257-84.132 87.958-75.725 252.749-75.725 252.749z" fill="#9b7656"/><path d="M966.179 1250.391c-21.739 21.41-34.788 39.828-34.788 39.828-54.297 64.195-52.933 221.953-51.415 233.294l20.1-11.29s-7.198-141.169 58.438-231.928c3.128-12.124 5.845-22.052 7.665-29.904z" fill="#634830"/><circle cx="949.235" cy="1617.617" fill="#634830" r="122.142"/><circle cx="962.45" cy="1613.6" fill="#9b7656" r="122.142"/><path d="M1019.323 1688.722c-44.826 26.934-103 12.429-129.933-32.397-22.077-36.742-16.307-82.448 11.175-112.571-36.538 29.149-46.749 81.559-22.018 122.719 26.934 44.826 85.107 59.331 129.933 32.397a94.686 94.686 0 0 0 21.223-17.363 95.349 95.349 0 0 1-10.38 7.215zm-62.665-115.927c-8.517 1.189-13.376-23.928-14.045-28.725-.668-4.783-1.001-13.104 7.161-14.549 9.327-1.651 11.471 6.208 12.284 12.031.618 4.432 3.116 30.054-5.4 31.243z" fill="#c69c76"/><path d="M947.599 1618.63c-6.202 4.144-21.102-16.065-23.743-20.018-2.634-3.943-6.562-11.102-.753-15.34 6.638-4.843 11.793 1.252 15 6.052 2.44 3.651 15.698 25.162 9.496 29.306zm30.26 18.187c-6.49-3.966 5.099-25.202 7.487-29.11 2.382-3.898 7.088-10.207 13.488-6.631 7.314 4.086 4.112 11.086 1.212 15.83-2.206 3.611-15.697 23.877-22.187 19.911zm-11.076 44.47c7.197-2.521-6.368-102.601-9.896-102.333-2.099.159 6.061 19.822 6.061 76.919 0 18.442 2.453 25.898 3.835 25.414z" fill="#c69c76"/><path d="M887.033 1230.036s-3.798 47.438 12.992 89.948c7.983 20.213 15.877 21.354 16.307 24.969 4.586 25.139 28.536 18.182 25.591 2.548-.034 16.816 25.854 14.06 22.14-3.492 11.55 8.587 17.665-8.059 14.875-26.336 2.76-2.82 6.98-7.133 9.582-13.584 4.28-10.61-.631-38.292-5.881-56.433-2.726-9.418-8.423-23.431-19.337-40.472-26.079 4.005-51.54 11.412-76.269 22.852z" fill="#fdb99a"/><path d="M898.247 1290.114c.199 1.506.253 3.199 1.021 5.26 1.763 4.736 5.374 7.003 8.061 14.078 4.265 11.232 5.894 31.469 5.894 31.469l2.738 2.961s-3.003-25.968-8.319-37.922c-1.801-4.05-3.347-6.062-4.6-9.247-5.652-14.359-2.611-26.47-3.37-26.527-.674-.049-2.823 9.368-1.425 19.928zm43.924 60.138s-3.21-29.504-4.608-29.249c-2.094.381 3.464 34.262 3.464 34.262.735-1.291 1.161-2.914 1.144-5.013zm22.189-6.664s-3.645-33.828-4.85-34.754c-2.603-2.001 3.89 41.852 4.478 41.823.463-2.086.8-4.72.372-7.069zm14.819-26.832s-2.53-23.756-3.227-23.271c-4.365 3.036 3.654 32.557 3.654 32.557z" fill="#f89578"/><path d="M922.18 646.318c-20.861-23.296-118.684-75.529-118.684-75.529s-5.611-21.88-23.972-33.051c-7.412-5.045-42.783-15.856-95.865-15.594-67.183.331-74.985 28.417-78.901 36.104 0 0-55.982 14.824-142.471 86.379-12.355 10.222-29.01 86.511-33.464 108.842-33.011 165.517-26.594 184.98-23.872 257.365 7.012 35.401 56.261 33.067 56.261 33.067s-8.517 121.92-3.127 139.426c11.149 36.209 222.681 71.036 239.94 54.77s-22.419-674.475-22.419-674.475l53.224.828c-24.384 116.6-8.795 659.494 17.257 666.621 30.866 8.444 124.426-17.725 124.426-17.725l6.484 30.978s66.924-18.116 117.048-40.205c-10.013-188.667-25.414-505.929-71.865-557.801z" fill="#020303"/><g fill="#1f2729"><path d="M873.232 744.647c2.521-91.268 25.096 358.905 29.414 446.318a18.4 18.4 0 0 1-13.445 18.638c-8.572 2.386-18.588 4.95-18.69 3.739-.042-.5 10.219-3.085 18.357-9.549 2.839-2.256 3.79-6.806 3.634-10.429-2.304-53.378-19.305-447.461-19.27-448.717zm-412.021 299.252c45.388-13.027 94.192-67.199 139.396-122.097 0 0-63.534 106.119-124.928 119.962-8.563 1.931-14.468 2.135-14.468 2.135zm82.911-204.714s-5.754-5.451-6.28-9.274-20.61-150.435-21.525-135.729 17.091 126.275 12.556 137.522-84.272 72.875-84.905 75.339c-.009.036-.022.095.012.14 1.228 1.643 88.608-75.146 100.142-67.998zm88.247-68.498c-2.547 1.256-76.521 7.647-78.545 6.111s-1.867-6.996-1.344-9.787 76.154-10.316 78.056-9.671c1.902.646 4.38 12.091 1.833 13.347zm144.217-3.635c2.677.949 75.112 4.178 76.942 2.415 1.83-1.762 1.033-7.167.186-9.877-.847-2.711-75.062-6.871-76.875-6.007-1.812.864-2.93 12.521-.253 13.469z"/><ellipse cx="663.491" cy="973.077" rx="12.156" ry="5.853" transform="matrix(.0188 -.9998 .9998 .0188 -321.9118 1618.1202)"/><ellipse cx="663.491" cy="1039.074" rx="12.156" ry="5.853" transform="matrix(.0188 -.9998 .9998 .0188 -387.8975 1682.8745)"/><path d="M617.271 645.033c-.554-11.635 20.776-23.823 19.216-34.627-1.035-7.166-29.287-24.682-34.772-42.511-2.174-7.066 23.813-33.759 23.813-33.759-29.699 20.867-34.538 34.72-32.23 40.447 7.628 18.925 31.2 32.782 32.119 35.469 3.601 10.527-15.627 17.135-15.627 33.318 0 23.269 81.573 211.052 81.573 211.052l-.603-17.164c.002 0-72.67-175.034-73.489-192.225zm164.236-105.942s17.9 29.808 16.748 34.401c-1.153 4.593-40.632 10.424-41.922 17.8-1.291 7.376 28.766 29.493 28.202 34.103-2.439 19.915-64.678 199.663-67.772 209.393v16.067c10.578-30.041 77.978-218.442 77.569-226.728-.461-9.323-27.424-27.881-26.364-30.619 1.06-2.737 43.124-10.546 44.322-16.067s-16.853-29.395-30.783-38.35z"/></g><path d="M641.253 955.687c-.002-.028-.001-.055-.004-.082l-92.178-944.77c-.641-6.569-6.54-11.419-13.108-10.778l-1.306.127c-6.569.641-11.419 6.54-10.778 13.108l92.009 943.044c.615 15.431-5.554 23.226-15.63 24.51-11.701 1.491-21.832-7.572-22.778-19.661-.308-3.936.032-8.523.032-8.523.299-9.569-2.773-12.361-6.922-13.347-2.379-.566-4.592.059-5.094.215-3.782 1.174-6.61 4.656-8.037 9.479-.725 2.452-1.147 4.561-1.428 8.452 0 0-.402 5.239.207 9.896 3.164 24.212 25.312 40.576 48.763 37.587 23.425-2.985 39.369-25.077 36.252-49.257z" fill="#c8cbcc"/><path d="m530.972 85.982 37.956 389.029 23.616-18.614-36.333-372.39z" fill="#8f9191"/><path d="M540.915 842.062c-5.318 4.488 29.585 82.928 37.654 82.032s28.24 1.793 50.654-19.051c7.62-6.5 19.551-2.123 23.31-9.413 2.307-4.474.224-15.017.224-15.017 14.052-2.069 19.499-18.579 11.431-28.016 0 0 11.879-27.568-10.31-32.051-1.121-17.678 2.017-22.413-52.447-24.206-16.961-.559-28.914 19.05-60.516 45.722z" fill="#fdb99a"/><path d="M583.228 825.715c-.296-.587 14.094-14.691 33.708-12.139 29.533 3.843 36.941 6.968 36.941 6.968l-.083-1.405s-23.892-10.98-46.067-8.387c-16.045 1.877-24.195 15.569-24.499 14.963zm16.409 25.312c18.57-15.331 61.365 4.881 64.55 1.569 0 0-26.207-9.68-43.582-9.299-13.066.287-20.968 7.73-20.968 7.73zm10.758 25.999c10.488-9.232 27.223-5.916 46.785 2.373-1.462.58-2.928 1.017-4.402 1.216-17.702-7.278-32.38-9.066-42.383-3.589z" fill="#f79478"/><path d="m737.267 498.863-8.44 65.584c-7.192 30.894-46.412 17.585-53.224-.828l1.825-43.544c27.762-3.068 31.674-1.321 59.839-21.212z" fill="#fcb899"/><path d="m736.74 502.959-4.32 33.567c-23.043 21.922-40.531 26.293-56.67 23.588l1.695-40.937c22.631.967 41.349-2.619 59.295-16.218z" fill="#f79478"/><path d="M784.983 396.217c23.695-1.177 24.043 38.106 4.478 52.947-7.718 5.855-21.904 1.909-21.299 1.057-4.138 9.256-19.807 45.975-40.258 60.946-9.114 6.672-29.397 19.748-58.568 17.933-5.572-.347-32.674-2.137-52.029-26.314-23.839-29.779-14.68-70.107-13.587-73.3-2.813-6.85-16.05-36.715-2.662-66.907 20.96-47.271 82.491-45.768 85.911-45.875 6.016-.188 52.291-1.308 72.788 41.466 14.98 31.26 4.445 67.446 6.029 62.117 3.136-10.558 4.998-23.364 19.197-24.07z" fill="#fcb899"/><path d="M667.056 458.554c2.216-4.233-11.198-18.317-18.315-15.718-2.224.812-4.145 3.367-4.291 5.891-.198 3.433 2.941 5.927 4.396 7.082 6.194 4.917 16.607 5.807 18.21 2.745zm98.321-36.555c-24.015-34.901-62.648-66.777-166.457-53.534 1.683-.215 5.804-62.704 98.698-52.288 33.85 3.042 67.412 25.551 70.34 69.328 1.811 27.071-2.581 36.494-2.581 36.494z" fill="#f79478"/><path d="M687.991 448.024c.494 12.406 11.096 21.957 23.68 21.332 12.585-.625 22.386-11.188 21.893-23.594s-11.096-21.957-23.68-21.332-22.387 11.188-21.893 23.594z" fill="url(#a)"/><path d="M601.53 442.49c-.561 4.77-.732 10.667-.286 17.009.432 6.149 1.661 11.472 2.702 16.105 0 0 7.311 3.591 14.583.728.941-.37 4.112-1.764 6.8-4.79 6.866-7.729 6.53-20.141-1.248-27.189-9.581-8.682-22.551-1.863-22.551-1.863z" fill="url(#b)"/><path d="M646.164 475.415c.894 2.655 12.268.83 22.685-1.845 8.679-2.229 23.537-11.926 20.732-11.254-7.418 1.777-9.698 6.371-41.66 11.231-2.4.365-1.812 1.706-1.757 1.868z" fill="#f98d79"/><ellipse cx="686.913" cy="414.747" fill="#020202" rx="8.439" ry="8.291" transform="matrix(.9432 -.3323 .3323 .9432 -98.793 251.8651)"/><ellipse cx="624.587" cy="425.191" fill="#020202" rx="8.439" ry="8.291" transform="matrix(.9432 -.3323 .3323 .9432 -105.8068 231.7452)"/><path d="M671.921 384.426c-2.253 1.478-5.251 7.841 3.124 7.999 37.917.714 57.844 8.582 54.116 4.061-8.065-9.782-43.537-21.05-57.24-12.06zm-37.231 12.651c1.343 1.258 3.103 6.237-1.926 5.811-22.768-1.926-34.78 2.695-32.514-.462 4.904-6.831 26.271-12.999 34.44-5.349z" fill="#582c0d"/><path d="M583.427 343.457c-2.685 21.919 11.318 62.698 13.093 62.512.095-.01-.614-3.197-.532-3.332-.014-19.191 11.695-45.515 11.695-45.515.757 2.42 36.028 27.155 65.127-2.086-13.718 3.458-29.863 2.296-34.771-9.74 30.769-3.507 56.798-2.819 66.174 24.234 4.399-6.092 4.905-14.757-2.185-25.117 20.164 4.944 26.442 9.007 34.407 30.397 4.944-8.851 5.108-19.571 2.457-27.64 20.799 16.167 9.165 47.37 25.868 79.792 2.73-20.774 10.86-34.472 30.776-27.813 0 0 1.788-43.531.07-56.921-1.517-8.334-3.388-25.557-19.168-34.759-32.861-19.066-68.002-17.28-81.283-16.604-57.889 2.943-109.044 30.674-111.728 52.592z" fill="#582c0d"/><path d="M766.04 319.421c1.064-.052 9.941-19.049-7.203-28.115-10.624-5.618-29.852-6.689-44.253-3.498-6.342 1.405-12.507 3.805-11.984 4.662.933 1.528 21.238-4.919 37.986-1.072 13.953 3.205 19.57 12.207 21.933 15.995 4.359 6.986 2.969 12.055 3.521 12.028z" fill="#582c0d"/><path d="M795.354 320.657c.931-.525-.05-21.291-19.707-21.572-12.18-.174-29.942 7.54-41.364 16.843-5.03 4.097-9.433 8.992-8.559 9.512 1.556.928 16.745-13.907 33.588-18.054 14.033-3.455 23.313 1.962 27.218 4.241 7.201 4.202 8.341 9.302 8.824 9.03z" fill="#582c0d"/><path d="M436.923 1366.999s-43.477 154.952-52.146 245.111c-6.716 69.849-60.279 312.207-60.279 312.207l-43.983-6.726c-2.592-107.007-8.999-261.906-7.096-309.408 1.652-41.239-10.633-163.017-12.618-244.966l176.122 3.782z" fill="#efa78b"/><path d="M300.78 1627.077c-11.518-8.442 4.943 21.038 31.731 22.213 21.111.925 41.238-25.388 28.312-17.572-17.52 10.593-33.007 15.174-60.043-4.641z" fill="#e0876c"/><path d="M350.205 1904.395s2.509-9.541 3.791-15.307c1.281-5.765 10.57.607 8.648 4.787-1.922 4.181-8.758 56.268-3.377 91.21 5.026 32.634 11.704 42.687 16.188 77.279 2.946 22.728.402 54.38-19.153 69.722-12.4 9.729-39.78 14.194-57.396 0-25.882-20.854-30.107-58.511-11.743-151.702 3.904-19.811-10.894-78.365-12.599-86.508-1.394-6.656 8.992-9.069 10.484-5.447l6.041 14.671c2.991-31.838 50.054-28.479 59.116 1.295z" fill="#121515"/><path d="M115.984 1356.43s42.518 229.702 44.201 261.363c8.373 157.486 62.458 373.787 62.458 373.787l64.38-8.648s13.943-247.938 3.844-368.022c-8.404-99.933 9.609-249.832 9.609-249.832z" fill="#fdb99a"/><path d="M127.417 1419.079c36.831 20.191 110.926 31.857 164.965 35.465 43.801 10.067 104.14 20.684 118.262 15.862L436.923 1367l-320.938-10.57z" fill="#f79173"/><path d="M297.028 1362.392c-1.458 14.784-2.699 69.627-4.296 92.231 43.772 10.043 103.827 20.591 117.912 15.782l26.279-103.406z" fill="#e0876c"/><path d="M191.646 1609.851c-14.757-8.147 8.958 23.885 40.496 21.222 24.854-2.099 44.451-35.938 30.497-24.84-18.913 15.043-36.353 22.741-70.993 3.618z" fill="#f79173"/><path d="M207.84 1965.539c-.651-4.461 7.904-5.561 8.601-1.921.388 2.026 2.985 14.692 2.985 14.692 5-48.852 57.349-47.521 66-3.379 0 0 2.002-10.157 2.701-13.288s7.486-2.285 7.637.653-6.995 44.1-5.236 108.682c.228 8.375 4.586 45.569 9.33 49.051 15.07 11.062 19.063 22.818 21.641 51.374 0 0 5.821 2.995 8.498 6.74s-.36 28.107-.36 28.107c-12.934 12.041-140.036 16.674-145.939 5.045 0 0-4.349-17.382-2.883-24.503s8.121-14.22 8.121-14.22c-.222-26.396 7.985-41.036 19.625-51.002 4.956-4.243 10.378-33.258 11.651-51.699 2.231-32.329-11.899-101.088-12.372-104.332z" fill="#242929"/><path d="M278.152 2129.401c-1.832-1.34-4.393-5.292-35.207-6.978-12.464-.682 30.318-5.078 31.916-5.503s2.694-1.437 2.176-3.721c-1.422-6.259-15.691-9.154-29.451-8.671 7.007-.659 16.53-1.679 24.795-2.962 4.115-.473 3.872-3.409 3.158-5.475-1.753-5.067-18.184-4.355-31.871-2.949-1.44.148-5.184-.223-2.088-.902 18.786-4.119 26.529-3.571 31.843-4.097 4.458-.441 3.446-4.549 1.012-5.828-12.347-6.803-39.185-1.164-33.539-3.824s30.197-2.309 32.729-3.972c2.533-1.664.366-3.656-1.548-4.567-4.264-2.031-9.55-3.424-27.19-1.353-6.197.118 23.465-4.153 29.535-5.017.236-.001.488-.039.741-.106l.175-.025c.966-.132 1.352-.479 1.423-.906.433-.501.521-1.116-.159-1.69-1.696-1.431-4.064-5.656-32.623-7.417-11.552-.712 28.108-5.477 29.59-5.933 1.482-.457 2.499-1.541 2.022-3.984-1.309-6.696-14.531-9.773-27.285-9.236 6.495-.715 15.324-1.82 22.986-3.205 3.815-.512 3.594-3.653 2.935-5.863-1.617-5.419-16.849-4.634-29.536-3.11-1.335.16-4.805-.231-1.934-.962 17.418-4.434 24.594-3.859 29.521-4.429 4.132-.478 4.03-4.647 2.405-5.371-11.434-7.262-37.777-2.057-32.54-4.912s27.992-2.514 30.342-4.297c2.35-1.784.344-3.912-1.429-4.885-12.646-6.938-34.401-1.178-35.656-.019-.813.751-.06 1.569.628 1.448 7.773-1.364 31.547-4.596 28.643-.393-1.633 2.363-27.784 5.54-30.705 9.479-.587.792-1.595 3.856.35 3.932 1.848.072 21.446-2.367 31.925-.696 6.301 1.005 6.184 2.735 2.526 2.747-3.305.01-30.682 3.814-34.544 7.532-.969.933-2.089 4.944-.803 5.543 1.759.819 26.511-2.456 30.937-1.94 1.553.172 1.055 1.472-.019 1.885s-29.537 7.792-31.727 9.027c-2.189 1.235-2.829 6.257-.917 6.197s35.188-4.312 37.129 1.775c.302.946-3.733 1.323-5.457 1.517-1.062.12-30.244 1.03-31.248 7.773-.419 1.879 1.012 4.179 2.883 4.123 1.069-.032 12.795-.304 28.703 2.682 2.01.447 3.6.911 4.887 1.356l-28.281 4.475c-3.316.56-7.388.99-6.798 3.566.175.762.556 1.39 1.831 1.918 2.326.785 5.269.203 15.551-.569 10.927-1.214 16.49-.443 14.676 1.834-1.758 2.206-30.945 3.274-33.496 7.282-.633.994-.441 3.773 1.251 3.7 1.977-.084 22.266-2.208 33.574-.631 6.799.948 6.676 2.565 2.729 2.57-3.566.005-33.097 3.521-37.259 6.99-1.044.871-2.247 4.617-.858 5.179 1.899.768 28.599-2.257 33.375-1.769 1.676.164 1.141 1.377-.017 1.762s-31.445 7.002-33.4 8.094c-3.021 1.687-3.444 5.622-1.796 6.087 1.986.561 37.958-3.979 40.061 1.712.327.884-4.026 1.231-5.885 1.41-1.146.11-32.628.919-33.702 7.22-.45 1.756 1.726 4.058 3.152 3.998 1.427-.059 13.769-.407 30.936 2.406 7.157 1.386 9.449 2.957 10.955 3.413 1.507.457 4.794-1.125 2.962-2.465zm-79.959 60.911c24.1 15.193 112.579 1.833 118.996-7.971-5.917 18.795-111.963 25.082-118.996 7.971zm148.264-264.804c-1.832 1.165-4.393 4.603-35.207 6.07-12.464.593 30.318 4.417 31.916 4.787 1.598.369 2.694 1.25 2.176 3.237-1.422 5.445-15.691 7.963-29.451 7.543 7.007.574 16.53 1.461 24.795 2.577 4.115.412 3.872 2.966 3.158 4.763-1.753 4.408-18.184 3.788-31.871 2.565-1.44-.129-5.184.194-2.088.784 18.786 3.583 26.529 3.106 31.843 3.564 4.458.384 3.446 3.957 1.012 5.07-12.347 5.918-39.185 1.012-33.539 3.327 5.646 2.314 30.197 2.009 32.729 3.456 2.533 1.447.366 3.18-1.548 3.973-4.264 1.766-9.551 2.979-27.19 1.177-6.198-.103 23.465 3.612 29.535 4.364.236.001.488.034.741.092l.175.022c.966.115 1.352.416 1.423.788.433.436.521.971-.159 1.47-1.696 1.245-4.064 4.92-32.623 6.452-11.552.619 28.108 4.764 29.59 5.161s2.499 1.34 2.022 3.466c-1.309 5.824-14.531 8.501-27.285 8.035 6.495.622 15.324 1.583 22.986 2.788 3.815.445 3.594 3.178 2.935 5.1-1.617 4.714-16.849 4.031-29.536 2.705-1.335-.14-4.805.201-1.934.837 17.418 3.857 24.594 3.357 29.521 3.853 4.132.416 4.03 4.043 2.405 4.672-11.434 6.318-37.777 1.789-32.54 4.273 5.237 2.483 27.992 2.187 30.342 3.738 2.35 1.552.344 3.403-1.429 4.249-12.646 6.035-34.401 1.025-35.656.017-.813-.653-.06-1.365.628-1.26 7.773 1.187 31.547 3.998 28.643.342-1.633-2.056-27.784-4.819-30.705-8.245-.587-.689-1.595-3.354.35-3.42 1.848-.062 21.446 2.059 31.925.606 6.301-.874 6.184-2.379 2.526-2.389-3.305-.009-30.682-3.318-34.544-6.552-.969-.812-2.089-4.301-.803-4.822 1.759-.713 26.511 2.136 30.937 1.688 1.553-.15 1.055-1.281-.019-1.64-1.074-.36-29.537-6.778-31.727-7.853-2.189-1.075-2.829-5.443-.917-5.391s35.188 3.751 37.129-1.544c.302-.823-3.733-1.151-5.457-1.32-1.062-.104-30.244-.896-31.248-6.762-.419-1.635 1.012-3.635 2.884-3.586 1.069.028 12.795.264 28.703-2.333 2.01-.388 3.6-.793 4.887-1.18l-28.281-3.893c-3.316-.487-7.388-.861-6.798-3.102.175-.663.556-1.209 1.831-1.669 2.326-.683 5.269-.177 15.552.495 10.927 1.056 16.49.386 14.676-1.596-1.758-1.919-30.946-2.848-33.496-6.335-.633-.865-.441-3.282 1.251-3.219 1.977.073 22.266 1.92 33.574.549 6.799-.825 6.676-2.231 2.729-2.236-3.566-.004-33.097-3.062-37.259-6.08-1.044-.757-2.247-4.016-.858-4.505 1.899-.668 28.599 1.963 33.375 1.539 1.676-.142 1.141-1.198-.017-1.533s-31.445-6.091-33.4-7.041c-3.021-1.468-3.444-4.891-1.796-5.296 1.986-.488 37.958 3.462 40.061-1.489.327-.769-4.026-1.071-5.885-1.227-1.146-.096-32.628-.799-33.702-6.281-.45-1.527 1.726-3.53 3.152-3.478 1.427.052 13.769.354 30.936-2.093 7.157-1.206 9.449-2.572 10.955-2.969 1.505-.397 4.792.98 2.96 2.145zM300.533 2114.8c19.15 15.184 69.328 15.184 66.734-52.352 9.212 67.536-53.92 73.235-66.734 52.352z" fill="#fff"/><path d="M153.001 1010.272s-77.536 304.49-87.842 358.689c-12.78 67.213 414.588 85.18 410.596 26.619-3.993-58.562-73.867-381.98-73.867-381.98z" fill="#242929"/><path d="M322.46 1164.843c-6.125 3.243 4.46 131.352 4.46 131.352s8.513-106.217 4.054-125.677c-1.834-8.001-7.923-5.988-8.514-5.675zm-47.027 49.865c-14.66 6.703 55.541 184.055 55.541 184.055s-30.406-147.974-46.622-178.785c-3.619-6.875-7.719-5.819-8.919-5.27z" fill="#121515"/><path d="M237.155 684.924c.84-26.455 87.833-30.575 99.629-6.93l52.333 309.732-152.696 12.725z" fill="#c5c9ca"/><path d="M408.38 989.444c4.923-6.955 83.999-93.337 80.463-103.935s-42.07-99.917-42.07-99.917l-24.014 12.595 14.993-84.812s-75.51-74.225-224.681-45.538c-58.598 11.269-105.406 59.723-105.406 59.723-29.006 29.743-41.026 167.716 10.187 232.219L76.335 1164.08c-10.588 33.664 211.704 49.456 213.427 24.936l4.197-102.122c16.248-2.474 42.421-32.49 67.172-52.637 0 0 18.698 143.406 31.857 147.094s64.073-3.975 64.073-3.975c-.367-47.191 1.948-93.596 5.493-134.758-39.382 5.197-66.768-35.383-54.174-53.174zm-70.708-132.842c-4.781 6.873-45.76 40.822-53.095 47.366s-22.19-231.6-22.19-231.6c0-8.853 54.528-8.853 57.953-2.831 0 .001 22.113 180.192 17.332 187.065z" fill="#c89d77"/><path d="M443.105 787.163c-.314-.369-41.695 22.743-41.695 22.743s-30.797-14.036-27.955-19.9 45.959-27.955 47.854-36.483-36.97-59.723-63.01-73.44c-32.775-17.265-81.04-27.007-121.878-5.805-32.876 17.068-64.808 90.022-60.544 95.708s47.854 24.285 52.593 33.288-20.089 34.439-20.089 34.439l-92.204-103.615c31.745 40.747 146.209 190.004 151.64 192.366 13.603 5.915 99.478-90.023 163.916-128.876.001-.001 12.119-9.549 11.372-10.425zM284.2 904.155l-21.813-231.786 60.415 3.009 14.87 181.225zm-158.551 60.228c1.04-1.059 133.594 113.994 165.941 113.697s197.253-192.571 197.253-192.571c1.381 2.603-5.294 13.89-14.292 25.042-78.017 99.286-155.535 176.344-180.593 176.344-22.548-.001-169.303-121.501-168.309-122.512zm-40.501 157.018c9.559 16.162 135.537 33.099 206.55 20.492l-.316 7.678c-53.921 12.438-193.265-1.697-207.919-19.881zm292.764 15.617c24.477 4.682 61.212 4.267 79.582-4.884l-.145 6.609c-17.495 7.348-72.664 7.613-78.171 4.137z" fill="#9b7656"/><path d="M98.288 1135.328c-17.592 27.036-36.613 59.288-36.613 59.288l8.599 2.462 7.125-11.562.769.362-5.584 11.862 9.035 2.587 7.554-19.081.929.247-6.654 19.358 8.513 2.438 3.797-14.306.952.136-3.17 14.622 6.478 1.855 1.325-9.461.961.021-.92 9.831 8.754 2.506s.011-49.652-2.943-72.569c-.491-3.815-5.425-5.947-8.907-.596zm51.835 13.871c-12.041 29.924-24.479 65.241-24.479 65.241l8.912.756 4.759-12.72.824.206-3.189 12.717 9.364.794 3.728-20.18.959.063-2.791 20.278 8.824.748.963-14.77.96-.05-.288 14.959 6.714.569-.526-9.539.947-.165.996 9.823 9.074.769s-9.575-48.72-16.898-70.636c-1.217-3.646-6.47-4.786-8.853 1.137zm56.988 4.663c-8.338 31.159-16.416 67.721-16.416 67.721l8.938-.327 3.187-13.202.843.105-1.629 13.009 9.392-.344 1.263-20.483.96-.053-.321 20.467 8.85-.324-.828-14.778.947-.166 1.522 14.884 6.734-.246-1.675-9.405.92-.278 2.175 9.631 9.1-.333s-15.391-47.206-25.309-68.077c-1.651-3.472-7.003-3.969-8.653 2.199zm52.8-1.009c-4.592 31.927-8.287 69.188-8.287 69.188l8.837-1.382 1.602-13.487.849.005-.078 13.111 9.285-1.453-1.17-20.488.947-.167 2.103 20.361 8.749-1.369-2.572-14.576.921-.277 3.273 14.599 6.657-1.041-2.776-9.141.881-.385 3.3 9.306 8.997-1.407s-20.87-45.053-33.187-64.604c-2.049-3.252-7.422-3.112-8.331 3.207zm147.4-8.051c-12.041 29.924-24.479 65.241-24.479 65.241l8.912.756 4.759-12.72.824.207-3.189 12.717 9.364.794 3.728-20.18.959.063-2.792 20.278 8.824.748.963-14.77.96-.05-.288 14.959 6.714.569-.526-9.539.947-.165.996 9.823 9.074.769s-9.575-48.72-16.898-70.636c-1.216-3.647-6.469-4.787-8.852 1.136z" fill="#9b7656"/><path d="M433.233 799.098c2.447-5.507 23.2-23.389 44.393-40.188 2.828-2.242 14.014-6.779 23.708-8.523 3.206-.577 14.358.392 21.304 3.243 2.809 1.153 5.149 5.291 5.149 5.291 12.052 3.083 10.733 8.596 14.532 19.79 0 0 10.107 11.575 9.841 16.882-.134 2.671-6.309 12.617-6.309 12.617s.645 18.535-11.449 17.524c-5.74-.48-16.589-2.57-16.589-2.57-14.143 16.234-49.39 32.711-55.842 32.711s-31.185-51.27-28.738-56.777z" fill="#ffb493"/><path d="M498.983 763.211c6.105-6.087 27.161-4.119 27.161-4.119s-23.279 6.236-27.41 5.847c-.974-.092.07-1.549.249-1.728zm9.651 17.677c.095-2.529 31.191-1.747 31.191-1.747s-12.868 3.724-27.133 2.869c-1.937-.116-4.081-.495-4.058-1.122zm4.519 16.022s19.433-1.267 22.154.614c5.217 3.606 9.384 10.261 9.384 10.261z" fill="#f79173"/><path d="M272.767 665.729c6.765 3.537 13.263 2.404 18.896-1.784 5.488-4.08 6.668-10.188 6.919-11.731l-2.754-19.143c30.002-8.102 52.365-28.332 56.781-52.887 1.075-5.978.747-10.206-2.27-27.361-1.291-7.344 2.883-18.794 2.621-33.269-.143-7.915-.361-20.017-5.309-30.191-11.584-23.819-46.544-50.832-85.896-40.415-32.088 8.494-58.542 38.055-54.98 72.76-.75-.242-10.998-6.336-17.918-2.085-3.371 2.071-4.66 4.878-5.092 6.132-.587 1.707-2.954 7.534.692 18.385 3.143 9.357 8.289 15.089 12.483 17.994 3.253 2.253 8.22 4.901 12.901 1.096 2.384-1.937 4.122-6.914 3.744-12.435-.411 6.313-.784 24.729 11.036 43.485 10.019 15.898 33.827 28.544 33.824 28.542l6.705 33.311s3.554 7.941 7.617 9.596z" fill="#ffb493"/><path d="M278.888 575.634c-1.632.287 9.621 17.902 20.335 19.975 12.056 2.333 26.204-8.162 27.265-12.365.761-3.011-44.847-8.094-47.6-7.61z" fill="#fff"/><path d="M316.043 557.325c2.633 1.589 3.54 5.96 2.394 8.831-2.532 6.347-19.558 5.818-21.357 2.915-2.349-3.793 12.755-15.492 18.963-11.746zm-38.114 17.637c1.982-4.211 48.908 4.652 50.048 7.18 1.404 3.114-21.115-.492-30.663-2.178-21.18-3.738-19.459-4.844-19.385-5.002z" fill="#fa8e79"/><path d="M258.609 622.939c3.694 1.874 15.206 9.943 37.137 10.292l7.207 46.397s-14.149 17.353-37.169-2.833zm1.801-173.564c-.79.22-.465 20.954-.465 20.954 17.837-2.235 86.061 15.695 87.44 18.791-3.188-8.621-34.381-53.206-86.975-39.745z" fill="#f79173"/><circle cx="342.143" cy="567.034" fill="url(#c)" r="16.154"/><circle cx="269.205" cy="558.832" fill="url(#d)" r="16.154"/><path d="M175.146 640.981c-13.35 14.964-8.673 39.852 12.258 45.788-3.969 8.725 6.985 34.94 40.24 37.503 10.744.828 38.135-5.161 47.187-23.438 4.152-8.384 2.817-16.674 2.411-19.77-3.625-27.644-16.395-126.899-16.736-181.263-.196-31.182.796-48.084.796-48.084 13.068 2.844 77.22 19.688 87.123 41.034 3.398 7.325 6.669 15.422 1.79 50.902-.539 3.922-.69 6.983-.596 9.064 9.335 38.732-10.147 66.094-53.873 80.513-.276-4.648 4.931 91.123 34.396 99.933 17.96 5.37 36.864-7.644 39.548-9.478 14.755-10.079 24.834-40.536 24.834-40.536 21.845-16.879 31.993-54.832-4.844-84.943-2.811-2.297-2.562-6.317-3.442-9.367-3.954-13.698-4.579-21.895-5.175-25.286-2.869-16.318-3.905-65.859-9.596-83.266-1.82-5.568-83.509-53.209-123.928-44.655-23.518 4.977-62.003 43.245-76.01 74.769-5.456 12.28 11.037 122.263 3.617 130.58z"/><circle cx="283.043" cy="529.903" r="7.041"/><circle cx="336.785" cy="538.957" r="7.041"/><path d="M262.039 503.737c.105-2.964 24.401-7.367 32.439 2.707 6.474 8.114-13.485-.152-29.848-2.321-2.679-.356-2.606.05-2.591-.386zm71.737 10.936c9.549 1.685 17.428 11.234 16.309 11.431-.816.143-11.173-3.619-23.222-7.692-4.781-1.616.336-4.9 6.913-3.739zm-87.868-78.753c.06-.736-11.916-5.08-21.596-.061-4.796 2.487-7.269 6.36-8.834 8.777-12.993 20.06-24.984 34.73-24.543 35.017.483.314 14.017-17.837 29.053-33.287 2.327-2.391 7.006-7.089 14.354-9.253 6.593-1.942 11.527-.723 11.566-1.193z"/><path d="M190.959 480.196c-.106 0-.191-.056-.297-.125l-.181-.118-.049-.231c-.073-.404.057-.634 4.152-6.154 4.603-6.205 12.306-16.591 20.475-29.203 1.589-2.454 4.162-6.429 9.023-8.949 9.194-4.766 20.199-1.278 21.865-.171.135.09.492.327.46.717-.051.626-.637.604-1.922.552-1.948-.083-5.572-.225-10.001 1.079-7.372 2.172-12.113 7.043-14.137 9.123-9.641 9.907-18.644 20.901-24.023 27.47-4.127 5.036-4.923 6.009-5.365 6.01zm43.91-46.242c-3.283 0-6.928.587-10.327 2.35-4.626 2.397-7.013 6.085-8.593 8.524-6.604 10.196-12.873 18.904-17.475 25.159 5.434-6.595 13.067-15.659 21.155-23.97 2.079-2.137 6.948-7.139 14.571-9.385 4.316-1.271 7.875-1.212 9.951-1.135-1.822-.673-5.283-1.543-9.282-1.543zm42.393 20.001c-.276.823 28.324 3.91 51.349 26.014 4.871 4.676 25.799 25.48 22.532 47.382-1.377 9.228-5.736 11.35-7.057 21.616-1.776 13.801 4.598 25.595 6.059 28.456 2.014 3.945 4.031 7.356 4.387 7.196.678-.305-7.001-12.486-7.296-27.242-.194-9.681 2.935-14.372 4.626-21.188 5.556-22.384-8.85-48.38-24.363-62.545-21.701-19.814-49.967-20.496-50.237-19.689z"/><path d="M354.513 585.136c-.464 0-1.436-.866-4.815-7.485l-.162-.316c-5.098-9.912-7.099-19.479-5.947-28.431.698-5.427 2.24-8.626 3.731-11.72 1.378-2.859 2.679-5.56 3.327-9.907 2.998-20.097-14.655-39.526-22.383-46.947-18.591-17.848-41.052-23.284-48.434-25.071-2.41-.583-2.816-.689-3.002-1.027l-.106-.192.065-.243c.103-.308.419-.389.523-.416 3.321-.863 30.143 1.284 50.525 19.896 16.269 14.855 29.912 41.277 24.511 63.034-.514 2.072-1.168 3.973-1.8 5.811-1.448 4.212-2.946 8.567-2.812 15.248.215 10.745 4.342 20.02 6.325 24.478 1.084 2.437 1.31 2.944.677 3.229-.064.028-.134.059-.223.059zm-74.414-130.841c7.479 1.811 30.1 7.306 48.857 25.314 7.841 7.528 25.747 27.258 22.68 47.816-.671 4.497-2.066 7.393-3.416 10.192-1.457 3.022-2.962 6.147-3.64 11.413-1.126 8.749.841 18.117 5.844 27.847l.164.318a101.91 101.91 0 0 0 1.887 3.538c-2.146-4.917-5.544-13.507-5.741-23.346-.137-6.857 1.39-11.298 2.867-15.593.625-1.817 1.271-3.697 1.774-5.726 5.307-21.378-8.165-47.399-24.215-62.056-17.681-16.144-39.61-19.382-47.061-19.717z"/><path d="M206.55 527.794c-7.908-16.273-30.297-14.443-26.064 9.63 2.152 12.238 15.382 33.064 25.321 29.192 7.872-3.066 11.042-17.629.743-38.822z" fill="#f79173"/><path d="M530.972 85.982S260.556 160.03 196.515 306.183C105.534 513.817 90.563 764.359 90.563 764.359l5.792-1.379c10.49-49.142.778-183.047 110.109-452.865 58.494-142.22 324.508-224.133 324.508-224.133z" fill="#fefefe"/><path d="M530.972 85.982c-18.964 55.585-28.042 154.922-28.042 216.73 0 169.321 24.164 341.129 28.042 442.541s-45.656-348.063-37.253-446.956c7.335-86.325 14.083-153.845 37.253-212.315zm25.972-2.033s195.91 37.925 298.949 158.995c26.49 31.125 122.515 379.994 170.942 485.272-14.527-31.635-131.207-453.485-164.626-489.938C745.297 110.752 556.944 83.949 556.944 83.949z" fill="#fefefe"/><path d="M90.563 764.359c128.295-38.279 253.264-44.685 440.408-22.29 212.96-58.567 365.962-32.137 495.863-13.853-189.616-23.693-352.718-20.309-494.035 19.93-161.116-20.88-296.896-19.341-442.236 16.213z" fill="#fefefe"/><path d="M530.972 85.982S412.101 195.189 360.654 282.419c-77.611 131.594-53.32 450.082-53.32 450.082-92.93 3.097-155.412 14.44-216.771 31.858 0 0 48.469-376.448 132.007-491.052C307.879 156.275 530.972 85.982 530.972 85.982zm172.164 628.262c-16.245 6.107 74.722-19.271 323.698 13.973 0 0-124.167-418.123-171.755-492.659C743.577 127.356 615.638 94.859 556.944 83.949c34.187 71.332 69.404 159.327 96.742 262.656 37.955 143.458 48.687 268.659 49.45 367.639zM77.513 728.562C59.108 716.495 35.192 709.875 0 707.482c0 0 20.281-63.432 50.7-148.988 48.552-136.554 99.351-237.826 99.351-237.826S75.967 598.983 77.513 728.562z" fill="#fff" opacity=".42"/></svg></g><g transform="translate(807.0 471.0) rotate(0.0 693.0 702.5) scale(1.0006468828333468 1.0002313702457863)"><svg width="1385.104" height="1404.675" viewBox="0 0 1385.104 1404.675"><g fill="#ff7c6a"><path d="M126.1 845.631c1.436.9 3.242-.364 2.892-2.022-4.766-22.591-26.544-125.289-32.868-145.592-6.326-20.31-16.205-29.784-28.811-26.016-16.302 4.874-19.919 30.7-20.1 50.886a91.082 91.082 0 0 0 .614 11.398c-2.588-3.188-5.913-6.065-9.871-8.35-13.735-7.931-28.23-10.107-35.222 2.212-1.672 2.946-3.069 7.843-2.664 12.152 1.165 12.371 9.693 19.563 14.378 24.09 31.147 30.099 95.369 71.038 111.652 81.242zm35.707-366.618c.623.756 1.844.393 1.955-.58 1.516-13.255 8.346-73.533 8.59-85.819.244-12.29-3.44-19.289-11.04-19.527-9.827-.308-16.53 13.189-20.318 24.222a52.79 52.79 0 0 0-1.747 6.361c-.836-2.221-2.133-4.405-3.885-6.381-6.08-6.858-13.629-10.7-19.713-5.224-1.455 1.31-3.116 3.739-3.681 6.175-1.622 6.995 1.739 12.496 3.479 15.833 11.574 22.191 39.299 56.37 46.36 64.94zm69.497 924.106c.331.987-.684 1.885-1.624 1.438-12.817-6.097-71.067-33.882-82.293-40.582-11.229-6.702-15.471-13.969-11.406-20.962 5.257-9.043 21.213-7.49 33.305-4.696a55.948 55.948 0 0 1 6.724 2.006c-1.533-2.005-2.775-4.406-3.571-7.101-2.765-9.35-1.981-18.327 6.387-20.734 2.001-.576 5.129-.707 7.646.156 7.227 2.476 10.299 8.607 12.331 12.058 13.51 22.944 28.744 67.217 32.501 78.417zm1029.604-451.127c.496 1.62 2.688 1.848 3.51.366 11.195-20.192 62.004-112.06 70.523-131.544 8.522-19.49 7.263-33.12-4.732-38.529-15.511-6.995-35.159 10.152-48.518 25.287a91.09 91.09 0 0 0-7.002 9.015c.133-4.105-.496-8.456-1.99-12.775-5.185-14.989-14.713-26.127-28.065-21.398-3.193 1.131-7.457 3.916-9.972 7.438-7.222 10.111-5.489 21.132-4.914 27.62 3.824 43.144 25.539 116.144 31.16 134.52zm44.259 87.738c-.346.733.357 1.52 1.125 1.26 10.468-3.545 58.048-19.713 67.341-23.869 9.295-4.157 13.239-9.389 10.734-15.168-3.24-7.473-15.72-7.729-25.325-6.672a43.642 43.642 0 0 0-5.383.937 17.07 17.07 0 0 0 3.41-5.165c2.992-6.978 3.205-13.991-3.047-16.616-1.495-.628-3.902-1.015-5.927-.578-5.814 1.255-8.75 5.715-10.636 8.198-12.543 16.51-28.364 49.355-32.292 57.673zm-107.859-914.331c.389 1.166 1.984 1.291 2.553.202 7.751-14.851 42.926-82.417 48.749-96.706 5.825-14.293 4.662-24.157-4.137-27.861-11.379-4.79-25.317 8.007-34.73 19.229a65.993 65.993 0 0 0-4.914 6.667c.021-2.98-.514-6.125-1.677-9.23-4.035-10.778-11.15-18.683-20.748-15.008-2.296.879-5.337 2.977-7.098 5.578-5.054 7.466-3.595 15.428-3.059 20.125 3.562 31.223 20.648 83.777 25.061 97.004z"/></g></svg></g></svg>